<svg xmlns="http://www.w3.org/2000/svg" viewBox="0 0 155.91 122.19"><defs><style>.cls-1{fill:#133c62;}.cls-2{fill:#123c61;}</style></defs><title>Asset 8</title><g id="Layer_2" data-name="Layer 2"><g id="Layer_3" data-name="Layer 3"><path class="cls-1" d="M4.27,91.34v.33c1,.17,143.79.24,147.4.07a27.38,27.38,0,0,0,0-3.51c-.11-.78,0-1.59-.23-2.34s0-1.3-.2-1.91c-.29-1-.14-2.16-.63-3.17a1.62,1.62,0,0,1,0-.66,1.92,1.92,0,0,0-.21-1c-.14-.27.06-.61-.16-.94s-.13-.87-.25-1.32a15.65,15.65,0,0,1-.39-2,17.42,17.42,0,0,0-.37-2c-.18-.69-.37-1.39-.61-2.07A10.54,10.54,0,0,1,148,68.7c-.11-.89-.63-1.6-.8-2.46a21.18,21.18,0,0,0-.85-2.63c-.29-.84-.66-1.65-.94-2.5-.19-.59-.56-1.17-.79-1.77-.85-2.17-2-4.22-3-6.29S139.32,49,138.07,47c-.77-1.23-1.62-2.42-2.43-3.62a34.4,34.4,0,0,0-2.53-3.3c-.92-1-1.84-2.11-2.73-3.19a78.51,78.51,0,0,0-5.85-6,40.78,40.78,0,0,0-3.2-2.64c-.79-.61-1.54-1.28-2.35-1.86a10.94,10.94,0,0,0-1.79-1.29c-.42-.18-.57-.62-1-.73a2.94,2.94,0,0,1-1-.7,14.4,14.4,0,0,0-1.43-.83c-1.28-.8-2.65-1.47-3.94-2.25-1.62-1-3.4-1.62-5.07-2.49-1.09-.56-2.31-.83-3.4-1.42a5.79,5.79,0,0,1-2.08-.6c-.63-.2-1.28-.48-1.92-.7a10.53,10.53,0,0,0-2-.49c-.6-.08-1.1-.43-1.7-.47A6.13,6.13,0,0,1,92,14c-.42-.15-.93.07-1.33-.26-1.14,0-2.22-.47-3.36-.45-.64-.42-1.41-.06-2.08-.32a6.09,6.09,0,0,0-2.17-.1c-.41,0-.69-.38-1.11-.24-.24-1.52.21-2.93.24-4.63a1.09,1.09,0,0,0,1.06.41,20.94,20.94,0,0,1,3.45.27,19.39,19.39,0,0,1,3,.43,47.46,47.46,0,0,1,4.67,1,20.58,20.58,0,0,0,2.81.69c.89.17,1.7.56,2.57.77,1.7.41,3.28,1.18,4.94,1.71a17.63,17.63,0,0,1,1.78.8c1.84.81,3.67,1.66,5.47,2.58,1.16.6,2.23,1.37,3.37,2a30.54,30.54,0,0,1,3.09,1.91c1.22.89,2.5,1.68,3.68,2.63s2.43,2,3.65,3a69.71,69.71,0,0,1,6.83,6.47c1,1.09,2,2.23,3,3.41,1.43,1.8,2.81,3.63,4.16,5.48a46.53,46.53,0,0,1,2.8,4.16c.55,1,1.09,2,1.69,2.95,1.31,2.1,2.3,4.37,3.4,6.58.72,1.46,1.3,3,1.91,4.53s1,2.9,1.63,4.31c.37.84.5,1.79.79,2.67.46,1.43.84,2.89,1.29,4.33.12.39.09.83.2,1.25s.42.85.26,1.33c.45.27,0,.89.44,1.15-.06,1.08.55,2.06.44,3.14,0,.38.28.64.24,1s-.15.67.19.91c0,0,0,.07,0,.1-.17.85.29,1.62.23,2.46-.06,1.08.38,2.14.21,3.24.4.86.08,1.8.24,2.67.43,2.33.09,4.67.21,7V96H.35l-.3-.3A41.14,41.14,0,0,1,.1,90.82c.17-1.46,0-2.92.22-4.34.13-.94,0-1.88.22-2.79.1-.57.06-1.15.21-1.68s.06-1.16.22-1.68c.31-1,.15-2.17.64-3.17a15.46,15.46,0,0,1,.71-3.93c.28-1.3.58-2.61,1-3.9.66-2.24,1.34-4.47,2.09-6.68.24-.71.49-1.42.77-2.12.76-1.86,1.61-3.69,2.41-5.54a33.93,33.93,0,0,1,1.72-3.6c1.27-2.25,2.48-4.54,3.92-6.7,1-1.42,2-2.8,2.88-4.24.33-.51.93-.8,1.06-1.44,1.12-1.34,2.15-2.76,3.34-4a18,18,0,0,1,1.37-1.53,10.07,10.07,0,0,0,1.27-1.35,12.65,12.65,0,0,1,2.69-2.63c.25-.61.9-.83,1.3-1.3a19,19,0,0,1,2.68-2.4,57.21,57.21,0,0,1,5-3.84c1.22-.79,2.43-1.64,3.63-2.47.75-.51,1.53-1,2.31-1.4,1.17-.66,2.31-1.36,3.52-1.95,1.38-.67,2.75-1.38,4.17-2,1.11-.45,2.23-.86,3.34-1.29,1.73-.66,3.5-1.21,5.25-1.79.75-.25,1.53-.41,2.29-.61.93-.25,1.87-.45,2.91-.69-.19,1.43.34,2.76.2,4.14a1.48,1.48,0,0,0,0,.21,2.05,2.05,0,0,1-1.09.33,10.06,10.06,0,0,0-1.81.47c-1,.16-1.89.59-2.85.84-.73.2-1.4.55-2.14.74a38.64,38.64,0,0,0-4.1,1.6c-1.06.4-2,1-3.06,1.43a17.79,17.79,0,0,0-1.74.89c-.58.3-1.17.57-1.74.88a59.11,59.11,0,0,0-5,3.09c-1.52,1.06-3,2.12-4.53,3.22-.67.49-1.24,1.11-1.88,1.63a82.05,82.05,0,0,0-6.41,6c-.51.51-.84,1.16-1.39,1.65a7.32,7.32,0,0,0-1.36,1.52c-.34.54-.87.95-1.25,1.48-.57.82-1.26,1.54-1.86,2.34-.71,1-1.37,1.94-2,2.92-.88,1.29-1.66,2.64-2.5,3.95a68.09,68.09,0,0,0-4.23,7.9,43.53,43.53,0,0,0-2,4.72c-.34,1-.8,2-1.16,3.06a16.64,16.64,0,0,0-.61,2A14.34,14.34,0,0,1,8,68.52a17.22,17.22,0,0,0-.61,2.29,18.55,18.55,0,0,0-.71,2.92c-.47.36,0,1-.43,1.38.15.62-.19,1.19-.26,1.79a13.62,13.62,0,0,1-.57,2.74.53.53,0,0,0,0,.2c.13.87-.35,1.69-.23,2.57.06.46-.3.86-.24,1.35a1.62,1.62,0,0,1-.2,1.35s0,.07,0,.11a16.52,16.52,0,0,1,0,2,8.21,8.21,0,0,0-.2,1.91c-.21,0-.22.13-.22.28Z"/><path class="cls-1" d="M112.88,76.71h-.22v-.33c-.15-.23-.41,0-.59-.15a16.57,16.57,0,0,0-2.78-1.18c-.54-.22-1.06-.67-1.73-.56h-.44v-.41a1.08,1.08,0,0,1-1-.5h-.69l-.39-.42h-1c-.31-.58-.93-.65-1.44-.88a7.58,7.58,0,0,1-1.51-.61c-.42-.3-1-.2-1.36-.71-.6.1-1-.34-1.57-.45a1.22,1.22,0,0,0-.33,0h-.44v-.44h-.89c-.2-.59-.88-.5-1.22-.89h-1v-.33c-.39-.2-.82-.3-1.22-.51a3.22,3.22,0,0,0-1.88-.49A2.57,2.57,0,0,0,89.39,67h-.45v-.34a24.75,24.75,0,0,1-2.56-1,23.77,23.77,0,0,1-2.69-1.28h1.86c.66.39.66.41,1.23.4a2.85,2.85,0,0,1,1.29.38c.45.21.91-.09,1.36.2a2.92,2.92,0,0,0,1.84.31,1.49,1.49,0,0,0,1.27.45,2.2,2.2,0,0,1,.71.15,3.35,3.35,0,0,0,1.1.27,6,6,0,0,1,1.86.34c.63.19,1.34.07,1.89.52a.59.59,0,0,0,.42,0,2.93,2.93,0,0,1,1.43.31,1.42,1.42,0,0,0,.6.14,2.33,2.33,0,0,1,1.44.45h1.25a1.18,1.18,0,0,0,.82.41c.54,0,1,.2,1.57.24.32,0,.53.32.9.25a1.2,1.2,0,0,1,1.15.44,3.11,3.11,0,0,1,1.85.31.72.72,0,0,0,.5.11,3.7,3.7,0,0,1,1.44.29c.15,0,.29.21.48.16a2.27,2.27,0,0,1,1.33.28c.42.16,1,0,1.28.39.41-.14.69.36,1.12.23s.69.17,1,.18.46.35.79.26a1.76,1.76,0,0,1,1.3.31c.43.26,1-.15,1.3.35.86.11,1.65.52,2.5.63a4.78,4.78,0,0,1,1.36.48,3.7,3.7,0,0,1,.88,0c.29.08.53.37.82.41a14.94,14.94,0,0,1,3.19.87,12.28,12.28,0,0,0,1.25.44,7.14,7.14,0,0,1,1.33.27c.55.27,1.26.13,1.76.67.75-.2,1.37.34,2.1.43a19.78,19.78,0,0,0,2.26.48l.28.48c1-.41,1.67.57,2.55.37.18,0,.22.18.35.22a9.17,9.17,0,0,1,2.76,1.1c.1.07.29,0,.44,0h.44v.44h.44c.16,0,.23.07.22.22.11.31.38.47.58.67h.53c0,.15.07.23.22.22v.67h.45v.66h.44v.44A6,6,0,0,1,147,85c-.22.46-.2,1-.67,1.37-.05,0,0,.21,0,.31-.37-.07-.58.26-.88.35v.32a3.41,3.41,0,0,0-1.13.2,14.56,14.56,0,0,1-4.31-.23c-1-.4-2-.63-3-1-.7-.25-1.4-.53-2.11-.74-.46-.14-.87-.39-1.35-.51a10.81,10.81,0,0,1-1.42-.54c-.91-.39-1.83-.75-2.74-1.12-.58-.23-1.17-.7-1.89-.5h-.22c0-.14.06-.29-.06-.4s-.45,0-.68-.2A1.52,1.52,0,0,0,125.3,82c0-.24-.22-.44-.42-.43-.4,0-.57-.25-.81-.46h-1c-.18-.63-.7-.39-1.11-.44h-.22v-.38a17.79,17.79,0,0,1-2.3-1,2.71,2.71,0,0,0-1.69-.42c0-.16-.07-.23-.22-.23-.11-.42-.45-.13-.67-.22h-.22V78h-.89v-.42c-.4.1-.68-.21-1-.29C114.08,77.19,113.58,76.65,112.88,76.71Z"/><path class="cls-1" d="M72.54,55.87c.1-.34-.29-.55-.23-.9s0-.6,0-.89c.08-.48-.29-.86-.25-1.35s.16-.87-.2-1.24c0,0,0-.07,0-.11.16-1.16-.29-2.29-.23-3.45s-.37-2.07-.22-3.12a3,3,0,0,1-.2-1.9c0-.57-.31-1-.27-1.58s.23-1.09-.19-1.57c0,0,0-.15,0-.22a15,15,0,0,0-.27-3.34c-.11-1,0-2-.22-3s0-1.74-.21-2.56c-.24-1.05,0-2.12-.23-3.13s0-2.1-.22-3.12c-.15-.83-.05-1.66-.22-2.46s-.11-1.57-.2-2.35c-.08-.63-.14-1.27-.25-1.89a12.68,12.68,0,0,0-.22-1.9,6.12,6.12,0,0,1-.17-2c0-.72-.32-1.39-.25-2.12a6.3,6.3,0,0,0,0-2.21,8,8,0,0,1-.15-2.91,12,12,0,0,1,1-4.44A3.57,3.57,0,0,1,70.84.45,3.94,3.94,0,0,1,74,.23a3.33,3.33,0,0,1,2.31,2.33,25,25,0,0,1,.49,2.58A44.68,44.68,0,0,1,77,10c0,.65-.33,1.24-.24,1.91a4.9,4.9,0,0,1,0,1.87,11.8,11.8,0,0,0-.18,3,10.71,10.71,0,0,0-.25,1.79,4.9,4.9,0,0,1,0,1.87,7.48,7.48,0,0,0-.18,2.25c0,.47-.31.86-.26,1.35s.19.95-.19,1.35c0,0,0,.15,0,.22a16,16,0,0,1-.27,3.45,30.54,30.54,0,0,1-.22,3.34c-.17.91,0,1.81-.2,2.68-.21,1-.06,2.1-.24,3.12-.11.68,0,1.37-.2,2-.22.93-.06,1.88-.24,2.78s0,1.68-.21,2.46a22.62,22.62,0,0,0-.21,2.57,6.45,6.45,0,0,0-.2,1.58.17.17,0,0,0-.22.16c0,.15,0,.3.22.28,0,.39-.34.7-.22,1.11-.3,0-.22.23-.22.39,0,1,0,2.1,0,3.15-.21,0-.22.13-.22.28v1.29C72.65,56.25,72.9,55.83,72.54,55.87Z"/><path class="cls-1" d="M26.88,73.38h.22c.51.12.92-.37,1.43-.22a31.81,31.81,0,0,1,4.15-1.33.52.52,0,0,0,.4-.44h.45c.21-.08.56.21.66-.22a2.67,2.67,0,0,0,2-.67,3.77,3.77,0,0,0,1.75-.3c.69-.21,1.38-.4,2.07-.58,1-.28,2.05-.6,3.09-.81s1.92-.54,2.9-.74a13.42,13.42,0,0,1,3.14-.67c1.14-.65,2.47-.59,3.67-1v-.33h.44c0,.06.07.18.08.18A13.16,13.16,0,0,0,54.75,66c.4-.1.75-.42,1.17-.36s.79-.32,1.23-.25c.32-.45.86,0,1.2-.31v-.34h.45c0,.14.07.24.16.21,1-.24,2-.5,2.94-.75v-.35h.44c0,.21.18.29.27.21.42-.33.85-.19,1.44-.17l-1,.51v.34c-.31.07-.6,0-.94.13A42.2,42.2,0,0,1,58,66.79a17,17,0,0,1-2.42,1.09.43.43,0,0,0-.32.41c-.38,0-.76-.05-.89.44-.38,0-.76,0-.88.44a1.57,1.57,0,0,0-.72.14c-.48.3-1.07.44-1.53.77s-1.23.3-1.62.86a26.77,26.77,0,0,0-3.45,1.4v.38h-.22a2.52,2.52,0,0,0-1.77.89h-.89v.44c-.28,0-.57-.09-.85.07a22.87,22.87,0,0,0-2.92,1.38v.32h-.22c-.28.05-.58-.1-.84.07-.66.43-1.43.59-2.11,1a5.08,5.08,0,0,1-1.93.82V78c-.25,0-.57-.09-.76,0-.68.39-1.45.63-2.11,1s-1.66.8-2.45,1.29v.33h-.64a18.33,18.33,0,0,1-2.28,1.22c-.52.19-1,.5-1.49.7s-1.14.19-1.46.74c-1,0-1.68,1-2.71.94a11.06,11.06,0,0,1-3,1.09,3.68,3.68,0,0,1-.92.19h-1c-.92,0-1.87.17-2.71-.44-.09-.07-.28,0-.43,0v-.44H12v-.22c0-.16-.06-.23-.22-.22,0-.16-.07-.23-.22-.23v-.44h-.44v-.85c0-.15,0-.27-.22-.26V80.26a1,1,0,0,0,.44-.89.19.19,0,0,0,.22-.22c0-.16.07-.23.22-.22s.23-.07.22-.23.07-.22.23-.22.22-.07.22-.22a.19.19,0,0,0,.22-.22c.54,0,.86-.45,1.33-.53v-.36a2.68,2.68,0,0,0,2-.66h.23a.55.55,0,0,0,.22,0,21,21,0,0,1,2.92-.91c.91-.18,1.79-.46,2.7-.67a9.9,9.9,0,0,1,1.58-.42A8.85,8.85,0,0,0,25.33,74,2.77,2.77,0,0,0,26.88,73.38Z"/><path class="cls-1" d="M33.08,118.58H31.17a3.4,3.4,0,0,0-.27-.27v-5.87l-.54-1.07c-.38,0-.51-.41-.85-.54a2.34,2.34,0,0,0-2.29.46,4.16,4.16,0,0,0-.48.46,1.78,1.78,0,0,0-.54,1.33c0,1.74,0,3.47,0,5.19l-.33.33H24.12a1.86,1.86,0,0,1-.35-1.39c0-1.77,0-3.54,0-5.32-1.2-1.57-2.91-1.67-4.38.12-.49,1.89-.19,3.79-.27,5.67,0,.32.09.68-.34.9H16.94v-9.93h1.87l.32.33v1.19c.21-.7.9-.83,1.33-1.2s1.11-.29,1.66-.53,1.15.37,1.67.19a4.8,4.8,0,0,1,2.13,2,4,4,0,0,1,2.16-1.95c.49-.21,1.08.21,1.55-.25.82.32,1.75.32,2.44,1a3.34,3.34,0,0,1,1,2.35C33.09,114.07,33.08,116.31,33.08,118.58Z"/><path class="cls-1" d="M60.35,118.36h-2v-6c-.19-.22-.39-.36-.46-.55-.33-.88-1.17-1-1.87-1.12a1.92,1.92,0,0,0-1.34.43,2.58,2.58,0,0,0-1,1.55,16.79,16.79,0,0,0-.19,3.46c0,.81,0,1.61,0,2.46H51.56l-.29-.29V112c-.08-.06-.26-.13-.29-.24-.23-.85-1.07-.79-1.64-1.13-.21-.13-.45.14-.68.19a2.47,2.47,0,0,0-2.12,1.74c0,.06-.1.11-.16.16v5.6c-.62.19-1.33-.13-2,.24.05-1.95-.35-3.85-.25-5.78.07-1.28,0-2.57,0-3.83l.3-.3h1.89v1.65a6.46,6.46,0,0,1,2.09-1.68c.55,0,1.1,0,1.65,0a2.88,2.88,0,0,1,3.07,2.09,4.13,4.13,0,0,0,.49-.62,2.89,2.89,0,0,1,2.6-1.47,5.26,5.26,0,0,1,2,.23,2.66,2.66,0,0,1,1.36,1,3.68,3.68,0,0,1,.74,2.25C60.31,114.13,60.35,116.2,60.35,118.36Z"/><path class="cls-1" d="M149.86,118.75c-.41.38-.27,1.13-.82,1.49-.38,1-1.43,1.14-2.16,1.69-.55-.13-1,.22-1.57.25a7.62,7.62,0,0,1-4-1c-.15-.08-.35-.07-.49-.25a3.39,3.39,0,0,1,.75-1.63c.42-.14.72.12,1,.29a3.63,3.63,0,0,0,4.14-.09,2.15,2.15,0,0,0,.79-1.21,2.28,2.28,0,0,0,.13-1.46,3.88,3.88,0,0,1-3.32,1.31,4.07,4.07,0,0,1-3.95-3.39,11.12,11.12,0,0,1-.19-1.8,5.06,5.06,0,0,1,1.35-3.31,3.65,3.65,0,0,1,1.8-1,3.91,3.91,0,0,1,1.12-.22,3.39,3.39,0,0,1,1.5.34c.52.25,1.19.32,1.48,1,0,0,.13,0,.22,0,.2-.32-.07-.72.16-1.08h2.08Zm-4.66-2.43s.12-.15.23-.14a1.81,1.81,0,0,0,1.64-.86,2.44,2.44,0,0,0,.62-1.73c0-.44,0-.88,0-1.29-1.11-1.82-1.68-2-4.12-1.67-.33.44-.89.72-1.07,1.31a5,5,0,0,0-.32,1.3,3.12,3.12,0,0,0,.28,1.31,2.55,2.55,0,0,0,.42.72A3.37,3.37,0,0,0,145.2,116.32Z"/><path class="cls-1" d="M89.61,114.63h-6.8a1.58,1.58,0,0,0-.06.77c.48.47.89,1,1.67,1.13a7.81,7.81,0,0,0,2-.07c.6-.19,1.07-.64,1.55-.78l1.17,1.17a3.54,3.54,0,0,1-2.6,1.51c-.31,0-.49.28-.79.25s-.59,0-.89,0A5.31,5.31,0,0,1,81.28,117a4.66,4.66,0,0,1-1-1.93,2.54,2.54,0,0,1,0-2.25c.15-.25-.11-.65.15-.93s-.07-.61.31-.75a4.14,4.14,0,0,1,3.89-2.55c.4,0,.81,0,1.21,0a3.19,3.19,0,0,1,2.29.88,3.91,3.91,0,0,1,1.48,3.14Zm-6-3.85a3.6,3.6,0,0,0-1.28,2h5.27c.22-.76-.36-1.24-.55-1.8l-1.17-.6A4.3,4.3,0,0,0,83.58,110.78Z"/><path class="cls-1" d="M68.34,116.61l1.68-.86,1.16,1.16A3.47,3.47,0,0,1,69,118.35a4.39,4.39,0,0,1-1,.25,8.28,8.28,0,0,1-1.22,0A5.45,5.45,0,0,1,64,117.54a3.63,3.63,0,0,1-1.51-2.25c-.14-.79-.7-1.58-.15-2.41a3.73,3.73,0,0,1,.87-2.42,2.93,2.93,0,0,1,.8-.77,6.47,6.47,0,0,1,1.61-.94,2.74,2.74,0,0,1,.61-.12c.52,0,1,0,1.55,0a3.26,3.26,0,0,1,2.33.81,4.16,4.16,0,0,1,1.54,2.89,1.62,1.62,0,0,0,.16.6,2.24,2.24,0,0,1-.22,1.67h-7a7,7,0,0,0,.77,1.35,2.93,2.93,0,0,0,1.39.63A5.22,5.22,0,0,0,68.34,116.61Zm-2.72-5.82c-.45.5-1.26,1-1,2h5.3a2.74,2.74,0,0,0-2.06-2.44A4.21,4.21,0,0,0,65.62,110.79Z"/><path class="cls-1" d="M7.81,118.38H7.37c0-.15-.07-.22-.22-.22a4.26,4.26,0,0,1-1.13-1,4.22,4.22,0,0,1-.61-1.75c-.09-.29.19-.7.33-1A2.89,2.89,0,0,1,8,112.66a4.6,4.6,0,0,1,1.11-.26c.74,0,1.48,0,2.22,0,.25,0,.3.38.65.15.13-.21,0-.55,0-.86a2.56,2.56,0,0,0-.81-1c-.69.09-1.42-.66-2.18,0-.83-.14-1.38.64-2.21.68-.24-.39-.34-.89-.72-1.16L7,109.3l1.7-.53c.07,0,.12-.14.16-.13,1,.12,1.93-.18,2.92.17a3.46,3.46,0,0,1,1.42.85l.77.76a5.82,5.82,0,0,1,.31,2.67c0,1.73,0,3.47,0,5.18l-.25.25a7,7,0,0,0-1.88-.16c-.22-.23,0-.56-.15-.83a3.27,3.27,0,0,1-1.93.85Zm4.25-4.21H8.67l-1,.53v1.38c.33.43.87.4,1.18.75a4.77,4.77,0,0,0,1,0c.84-.19,1.7-.34,2.11-1.3C12.1,115.08,12,114.67,12.06,114.17Z"/><path class="cls-1" d="M94.06,118.42a7.22,7.22,0,0,1-2.67-2.31,6.57,6.57,0,0,1-.42-1c-.16-.4.07-.93-.25-1.33a8.69,8.69,0,0,1,.72-2.79c.34-.52.61-1.17,1.26-1.41s.94-.68,1.55-.8,3.09-.25,4.09.32a4.91,4.91,0,0,1,2.33,2.67,5.71,5.71,0,0,1-.4,4.61,2.66,2.66,0,0,1-.37.51,5.33,5.33,0,0,1-4.57,1.76C94.88,118.56,94.48,118.2,94.06,118.42Zm2.8-7.8c-.37,0-.92,0-1.47,0a1.66,1.66,0,0,0-1.33.54c-.23.23-.49.44-.68.62A2.09,2.09,0,0,1,93,113a3.51,3.51,0,0,0,1.47,3.4,1.51,1.51,0,0,1,.58.15,1.83,1.83,0,0,0,1.78.07,2.67,2.67,0,0,0,1.92-2.8c0-.44,0-.88,0-1.19A3.12,3.12,0,0,0,96.86,110.62Z"/><path class="cls-1" d="M131.72,114.17c.16.48-.21.88-.22,1.33-.33,0-.19.28-.22.44s-.16,0-.18.09a4.18,4.18,0,0,1-1.88,1.84,5,5,0,0,1-4.39.14,1.6,1.6,0,0,0-.42-.07c-.07,0-.17,0-.22,0a5.43,5.43,0,0,1-2-2.18,3.8,3.8,0,0,1-.46-1.91,5.5,5.5,0,0,1,.41-2.26,4,4,0,0,1,2.12-2.3,2,2,0,0,1,1.25-.44c.17,0,.42.11.44-.22h1.55c.11.43.45.14.67.22h.44c.11.43.45.14.67.22,0,.16.06.23.22.22a6,6,0,0,1,2.09,2.62,2.58,2.58,0,0,1,.12.71ZM126,116.61a6.93,6.93,0,0,1,1.11,0c.46.08.77-.35,1.18-.25.47-.45,1.07-.84,1.16-1.42s.48-1.12.25-1.66-.12-1.06-.46-1.46a3.72,3.72,0,0,0-1.48-1.21h-1.32a1.92,1.92,0,0,0-.64.05,2.57,2.57,0,0,0-1.84,2.61v1.28A3.13,3.13,0,0,0,126,116.61Z"/><path class="cls-1" d="M38.64,116.89c.3-.35.64-.27,1-.28.24-.28.7-.44.53-1-.83-1-.51-.72-2.09-1.18a4.93,4.93,0,0,1-2.72-1.71c.07-.27-.24-.53-.25-.88a2.89,2.89,0,0,1,2.86-3.2c.32,0,.65,0,.87-.23,1.14.42,2.46.3,3.43,1.28-.34.42-.4,1-.81,1.34a1.44,1.44,0,0,1-1.37-.39c-2.28,0-2.28,0-2.76.31v.67a2.28,2.28,0,0,0,1.44.75,8.67,8.67,0,0,1,2.39.93,1.94,1.94,0,0,1,1,1.31c.11.48.56,1,0,1.48a1.71,1.71,0,0,1-.81,1.64,4.17,4.17,0,0,1-1.61.69,4.27,4.27,0,0,1-2.48,0,1.9,1.9,0,0,0-.71,0L35,117.5c-.16-.09-.31-.2-.5-.33.47-.49.48-1.08.92-1.43.67-.15,1,.51,1.57.7S38.13,116.4,38.64,116.89Z"/><path class="cls-1" d="M79.15,110.85H76.57v5.24l.27.28a3.06,3.06,0,0,0,2-.33,3.76,3.76,0,0,1,.31,2.08c-.64,0-1.15.42-1.78.5s-1.18-.29-1.81-.24a3.6,3.6,0,0,1-1.36-1.95,4.09,4.09,0,0,1-.1-.84c0-1.54,0-3.09,0-4.67-.33-.16-.71,0-1-.08l-.3-.3v-1.43H74c.12-.82,0-1.62.07-2.38l.28-.29h1.84l.33.34v2.29h2.59Z"/><path class="cls-1" d="M109.11,117.14a4.34,4.34,0,0,1,.76-1.63,4.87,4.87,0,0,0,4,1.07l.54-.52v-.69a4.67,4.67,0,0,0-2.14-1,4.25,4.25,0,0,1-2.27-1.22,1.5,1.5,0,0,1-.47-1.14c0-.51,0-1,0-1.53a3.05,3.05,0,0,1,2.74-1.67c.45,0,.83-.42,1.39,0,.35.24,1,.06,1.44.23a2.93,2.93,0,0,1,1.26.77,5,5,0,0,0-.35.69,2.33,2.33,0,0,1-.39.59c-1.46-.69-1.46-.69-3.55-.69l-.54.57v.62c.39.69,1.14.78,1.78,1s1.15.46,1.73.66c1,.32,1.25,1.15,1.55,1.92.21.53-.15,1.1-.3,1.63a1.56,1.56,0,0,1-.9,1,6.48,6.48,0,0,1-6.31-.62Z"/><path class="cls-1" d="M105,118.6h-1.71a2,2,0,0,1-.35-1.4c0-2.76,0-5.52,0-8.3.67-.54,1.43-.14,2.1-.28.33.44.33.44.42,1.37a4.14,4.14,0,0,1,1.77-1.34h1.22v2.18a3.69,3.69,0,0,0-1.88.43,2.13,2.13,0,0,0-1.2,1.94c0,1.55,0,3.1,0,4.65A.71.71,0,0,1,105,118.6Z"/><path class="cls-1" d="M135.71,118.58H134v-9.9h2.2v1.4a5,5,0,0,1,2.87-1.65c.21,0,.26.19.42.28v2.1h-1.08a8.23,8.23,0,0,0-1.52,1,2.39,2.39,0,0,0-.7,1.71c0,1.43,0,2.87,0,4.31C136.16,118.11,136.21,118.42,135.71,118.58Z"/><path class="cls-1" d="M143.92,79.37c-.15,0-.34.06-.44,0a9.17,9.17,0,0,0-2.76-1.1c-.13,0-.17-.26-.35-.22-.88.2-1.56-.78-2.55-.37l-.28-.48a19.78,19.78,0,0,1-2.26-.48c-.73-.09-1.35-.63-2.1-.43-.5-.54-1.21-.4-1.76-.67a7.14,7.14,0,0,0-1.33-.27,12.28,12.28,0,0,1-1.25-.44,14.94,14.94,0,0,0-3.19-.87c-.29,0-.53-.33-.82-.41a3.7,3.7,0,0,0-.88,0,4.78,4.78,0,0,0-1.36-.48c-.85-.11-1.64-.52-2.5-.63-.31-.5-.87-.09-1.3-.35a1.76,1.76,0,0,0-1.3-.31c-.33.09-.48-.25-.79-.26s-.65-.29-1-.18-.71-.37-1.12-.23c-.33-.43-.86-.23-1.28-.39A2.27,2.27,0,0,0,112,70.5c-.19,0-.33-.13-.48-.16a3.7,3.7,0,0,0-1.44-.29.72.72,0,0,1-.5-.11,3.11,3.11,0,0,0-1.85-.31,1.2,1.2,0,0,0-1.15-.44c-.37.07-.58-.23-.9-.25-.53,0-1-.23-1.57-.24a1.18,1.18,0,0,1-.82-.41H102a2.33,2.33,0,0,0-1.44-.45,1.42,1.42,0,0,1-.6-.14,2.93,2.93,0,0,0-1.43-.31.59.59,0,0,1-.42,0c-.55-.45-1.26-.33-1.89-.52a6,6,0,0,0-1.86-.34,3.35,3.35,0,0,1-1.1-.27,2.2,2.2,0,0,0-.71-.15,1.49,1.49,0,0,1-1.27-.45,2.92,2.92,0,0,1-1.84-.31c-.45-.29-.91,0-1.36-.2a2.85,2.85,0,0,0-1.29-.38c-.57,0-.57,0-1.23-.4H83.69a23.77,23.77,0,0,0,2.69,1.28,24.75,24.75,0,0,0,2.56,1V67a7.18,7.18,0,0,1-2.13-.74c-1.66-.7-3.34-1.38-5-2.16-.35-.16-.86-.2-.89-.75a.43.43,0,0,1,.52-.11c.48.37,1.08.24,1.61.39A13.78,13.78,0,0,0,85,64a7.92,7.92,0,0,0,2,.3c1.27.7,2.79.47,4.08,1.1a15.15,15.15,0,0,1,3.59.72,32.65,32.65,0,0,1,5.23,1.26,13,13,0,0,1,2.68.49,18.66,18.66,0,0,1,3.13.71c.8.25,1.62.33,2.42.57,1,.32,2.1.45,3.13.74.83.24,1.68.37,2.51.61,1,.29,2.07.56,3.11.77a21.77,21.77,0,0,0,2.54.59,10.74,10.74,0,0,1,1.88.52c1.3.34,2.58.75,3.9,1,.73.15,1.44.44,2.16.65,1.06.3,2.13.57,3.18.89,1.64.52,3.29,1,5,1.35.79.17,1.56.51,2.35.74s1.33.34,2,.52c1,.27,1.94.68,2.91,1C143.21,78.72,143.75,78.79,143.92,79.37ZM83.64,64.19c-.2-.15-.34-.21-.43,0C83.34,64.34,83.46,64.33,83.64,64.19Z"/><path class="cls-1" d="M120.2,50.33h-.33c-.23.77-1,.93-1.48,1.38-.24-.19-.24-.33-.08-.49l1.2-1.2v-.49c-.07,0-.13-.08-.19-.08-1.18,0-2.36,0-3.54,0a5.72,5.72,0,0,1-1.31-.33s0-.13,0-.27c1.57-.58,3.21-.16,4.82-.34.16-.21,0-.48.09-.81l-.91-.88a.28.28,0,0,1,.17-.29c.58.2.82.86,1.35,1.13.25,0,.29-.23.5-.3-.22-.81.23-1.54.21-2.33s0-1.61,0-2.43l.35,0c0,.08.09.14.09.2,0,.52,0,1,0,1.55a17.42,17.42,0,0,1,0,1.77c-.06.56.49,1,.16,1.55l.57,0c.44-.24.63-.8,1.29-1A2.22,2.22,0,0,1,122,48.11c-.35.09-.56-.25-.83-.29l-.39-.82c-.23.29,0,.62-.21.89-.28,0-.45.26-.75.29,0,.32-.05.64-.4.82a4.58,4.58,0,0,0-.64,0c-.17,0-.42-.16-.53.23h1.56V50C119.94,50.17,120.22,50,120.2,50.33Z"/><path class="cls-1" d="M21.11,63a.17.17,0,0,1,.17-.22h1c.19-.1.12-.22.15-.35s.62.16.66-.31c.37-.07.21-.5.44-.67.43.06.11.43.27.6.32.34.44-.4.76-.1s-.33.51-.14.83v.89c0,.46.54.61.69,1-.62.51-.79-.4-1.35-.29a17.66,17.66,0,0,1-.28,3.47c-.2.08-.17-.2-.38-.15V63.92a2.09,2.09,0,0,1-1.21.82.25.25,0,0,1,0-.44l.54-.55c-.11-.31-.61.12-.65-.34V63Z"/><path class="cls-1" d="M92.49,27.06H91.38v-.67h.84c.16,0,.28,0,.27-.22.17-.23.6-.07.66-.44.22,0,.23-.14.23-.29V23.79c0-.15,0-.3.22-.28v2c0,.15,0,.27.22.26l.66.66h1.33v.67H94.55c-.23.52.48.56.37,1-.12.18-.26.17-.43,0s-.24-.38-.62-.34c0,1.24-.42,2.45-.41,3.79l-.18-.38-.13.07V27.72Z"/><path class="cls-1" d="M12.47,85.13c.15,0,.34-.06.43,0,.84.61,1.79.41,2.71.44h1a3.68,3.68,0,0,0,.92-.19,11.06,11.06,0,0,0,3-1.09c1,.06,1.71-.9,2.71-.94.32-.55,1-.56,1.46-.74s1-.51,1.49-.7a18.33,18.33,0,0,0,2.28-1.22h.64a10.81,10.81,0,0,1-3.27,1.77,8.66,8.66,0,0,0-1,.45,34.66,34.66,0,0,1-5.25,2.24,19.75,19.75,0,0,1-2.13.72c-.23.06-.47.1-.71.14a2.25,2.25,0,0,0-1,.18c-.33.19-.82-.1-1.21-.13a4.94,4.94,0,0,1-1.58-.49A.6.6,0,0,1,12.47,85.13Z"/><path class="cls-1" d="M84.73,83.8v-.22c0-.13-.07-.17-.16-.22s-.61-.1-.73-.44c.29,0,.58.07.85-.06.2-.47-.51-.51-.39-1,.36-.44.65.58,1.08-.09a8.44,8.44,0,0,1,.39-3.24,9.11,9.11,0,0,1,.07,1.69c0,.55,0,1.1,0,1.65.14.19.34.08.51.11.35-.16.46-.67,1-.68a1.38,1.38,0,0,1-.46.85c-.19.14-.16.32-.15.49-.11,0-.2,0-.18.18.23.18.6-.12.82.19l-.2.08h-.34c-.24.21,0,.49-.12.68.17.41.69.51.69,1l-.26.15-1-.91-.32.32v.55s-.1,0-.1,0c-.29-.71-.29-.71-1-1C84.72,83.9,84.73,83.84,84.73,83.8Z"/><path class="cls-1" d="M127.51,82.92c.72-.2,1.31.27,1.89.5.91.37,1.83.73,2.74,1.12a10.81,10.81,0,0,0,1.42.54c.48.12.89.37,1.35.51.71.21,1.41.49,2.11.74,1,.36,2,.59,3,1a14.56,14.56,0,0,0,4.31.23,3.41,3.41,0,0,1,1.13-.2c-.19.43-.76.29-1,.66h-2a2.2,2.2,0,0,1-.77,0,21,21,0,0,0-2.22-.51c-1.51-.45-3-.94-4.48-1.47-.87-.32-1.74-.63-2.59-1s-1.77-.72-2.65-1.08c-.69-.29-1.39-.56-2.09-.83C127.58,83.1,127.49,83.06,127.51,82.92Z"/><path class="cls-1" d="M120.2,50.33c0-.3-.26-.16-.42-.3v-.79h-1.56c.11-.39.36-.2.53-.23a4.58,4.58,0,0,1,.64,0c.35-.18.38-.5.4-.82.3,0,.47-.33.75-.29.22-.27,0-.6.21-.89l.39.82c.27,0,.48.38.83.29v.45c0,.21.13.21.28.22s.19.09.18.13c0,.41-.38.23-.46.43s.07.5-.06.72-.4,0-.38.27c-.16,0-.23.07-.22.22-.7.43-.31,1.2-.59,1.78a9.43,9.43,0,0,1-.08-1.5c0-.15,0-.29-.22-.28C120.43,50.4,120.35,50.33,120.2,50.33Z"/><path class="cls-1" d="M47.93,40.13c0,.74,0,1.48,0,2.21a2,2,0,0,1-.36,1.38c-.11-.62-.25-1.17-.3-1.74s0-1.23,0-1.83l-.31,0c-.22.08-.05.36-.25.45h-.55c-.12-.43.34-.55.45-.83s0-.29-.23-.28c-.11-.28.19-.43.22-.67s-.27-.47-.22-.77a.28.28,0,0,1,.37-.08l.15.38c.18,0,.36.09.37-.19.51-.15,0-.68.33-.88.35.2-.18.74.33.88,0,.13-.07.37.08.39.47,0,.33.53.6.69A1.7,1.7,0,0,1,47.93,40.13Z"/><path class="cls-1" d="M52.81,66.07v.33c-1.2.41-2.53.35-3.67,1a13.42,13.42,0,0,0-3.14.67c-1,.2-1.92.55-2.9.74s-2.06.53-3.09.81c-.69.18-1.38.37-2.07.58a3.77,3.77,0,0,1-1.75.3c.4-.46,1-.43,1.55-.62s.91-.27,1.37-.41.89-.15,1.31-.31c.77-.29,1.59-.4,2.38-.63,1.34-.41,2.73-.67,4.08-1.07a5.06,5.06,0,0,1,1.32-.26,2.35,2.35,0,0,0,1.2-.44A30.3,30.3,0,0,0,52.81,66.07Z"/><path class="cls-1" d="M120.41,117.84c-.19.21-.47.36-.47.73h-1.47c-.27-.13-.23-.54-.49-.74v-1.09a2.69,2.69,0,0,1,1.23-.84,2.14,2.14,0,0,1,1,.6A2,2,0,0,1,120.41,117.84Z"/><path class="cls-1" d="M121.53,50.33c0-.29.24-.17.38-.27s0-.47.06-.72.46,0,.46-.43c0,0-.07-.11-.18-.13s-.29,0-.28-.22a7.66,7.66,0,0,1,2.09,0,16.92,16.92,0,0,0,2.93.21c.08.06.08.17.07.37-.79,0-1.54.31-2.36.28s-1.62,0-2.4,0c-.19.18-.07.38-.11.54.36.46.89.76,1.16,1.28l-.23.21C122.5,51.23,122.18,50.54,121.53,50.33Z"/><path class="cls-1" d="M47.93,40.13a1.7,1.7,0,0,0,.68-.91c-.27-.16-.13-.66-.6-.69-.15,0,0-.26-.08-.39.56.1.67-.49,1-.66a.29.29,0,0,1,.3.11c0,.52-.73.59-.66,1.16,1.09.21,2.24-.21,3.3.32v.4a5.57,5.57,0,0,0-1.74,0,7.63,7.63,0,0,1-1.61.2l.73.66c-.06.27.05.47-.15.66-.48-.09-.69-.48-.87-.9Z"/><path class="cls-1" d="M26.88,73.38a2.77,2.77,0,0,1-1.55.62,8.85,8.85,0,0,1-1.67.48,9.9,9.9,0,0,0-1.58.42c-.91.21-1.79.49-2.7.67a21,21,0,0,0-2.92.91.55.55,0,0,1-.22,0v-.33c1.49-.59,3.06-1,4.59-1.4a34.38,34.38,0,0,1,3.92-.93c.1,0,.23,0,.3-.07C25.58,73.27,26.24,73.4,26.88,73.38Z"/><path class="cls-1" d="M46.16,72.72v-.38a26.77,26.77,0,0,1,3.45-1.4c.39-.56,1.11-.51,1.62-.86s1.05-.47,1.53-.77a1.57,1.57,0,0,1,.72-.14c-.06.45-.51.49-.78.64-.83.47-1.7.87-2.57,1.27-1.24.56-2.5,1.09-3.75,1.64A.81.81,0,0,1,46.16,72.72Z"/><path class="cls-1" d="M55.25,68.29a.43.43,0,0,1,.32-.41A17,17,0,0,0,58,66.79a42.2,42.2,0,0,0,4.08-1.92c.34-.16.63-.06.94-.13a9,9,0,0,1-2.12,1.13c-1.45.69-2.88,1.42-4.34,2.09A2.26,2.26,0,0,1,55.25,68.29Z"/><path class="cls-1" d="M120.42,50.55c.21,0,.22.13.22.28a9.43,9.43,0,0,0,.08,1.5c.28-.58-.11-1.35.59-1.78,0,.63,0,1.25,0,1.88s-.32,1-.24,1.56a12.79,12.79,0,0,1,0,1.64h-.4A45.49,45.49,0,0,1,120.42,50.55Z"/><path class="cls-1" d="M24.44,63.63v-.89h1a4.48,4.48,0,0,1,2.31.32v.29A18.37,18.37,0,0,1,24.44,63.63Z"/><path class="cls-1" d="M46.6,38.8c0,.24-.33.39-.22.67-.22.48-.7.28-.94.19a10.16,10.16,0,0,0-2.31-.22c-.27-.58.41-.34.51-.63,0-.06.35,0,.53,0Z"/><path class="cls-1" d="M97.81,70.5a1.22,1.22,0,0,1,.33,0c.53.11,1,.55,1.57.45.31.51.94.41,1.36.71a7.58,7.58,0,0,0,1.51.61c.51.23,1.13.3,1.44.88a2.11,2.11,0,0,1-.72-.13c-1.51-.7-3-1.31-4.61-1.88C98.36,71,97.92,71,97.81,70.5Z"/><path class="cls-1" d="M63,64.74V64.4l1-.51c-.59,0-1-.16-1.44.17-.09.08-.28,0-.27-.21s.14-.19.29-.22L65.37,63c.14,0,.23.24.34.47-.82.44-1.59.86-2.37,1.26C63.25,64.78,63.12,64.74,63,64.74Z"/><path class="cls-1" d="M29.09,80.7v-.33c.79-.49,1.65-.81,2.45-1.29s1.43-.63,2.11-1c.19-.11.51,0,.76,0a8.47,8.47,0,0,1-2,1.1c-1,.52-1.94,1-2.9,1.49C29.36,80.71,29.23,80.67,29.09,80.7Z"/><path class="cls-1" d="M84.73,83.8s0,.1,0,.1c.72.3.72.3,1,1,0,0,.06,0,.1,0v3a1.66,1.66,0,0,1-.45-1.2,4.9,4.9,0,0,0-.32-2.42c-.49,0-.56.53-1,.67,0,0-.17,0-.25-.18A2,2,0,0,1,84.73,83.8Z"/><path class="cls-1" d="M33.08,71.39a.52.52,0,0,1-.4.44,31.81,31.81,0,0,0-4.15,1.33c-.51-.15-.92.34-1.43.22a.49.49,0,0,1,.4-.43,14.3,14.3,0,0,0,2.65-.75,12.23,12.23,0,0,0,1.47-.39A4.15,4.15,0,0,1,33.08,71.39Z"/><path class="cls-1" d="M34.41,78v-.37a5.08,5.08,0,0,0,1.93-.82c.68-.37,1.45-.53,2.11-1,.26-.17.56,0,.84-.07a4.74,4.74,0,0,1-1.75,1c-.84.32-1.61.75-2.41,1.14A2.07,2.07,0,0,1,34.41,78Z"/><path class="cls-1" d="M107.56,74.49c.67-.11,1.19.34,1.73.56a16.57,16.57,0,0,1,2.78,1.18c.18.12.44-.08.59.15v.33a1.74,1.74,0,0,1-.72-.14,8.49,8.49,0,0,0-2-.85c-.71-.18-1.25-.73-2-.79A.51.51,0,0,1,107.56,74.49Z"/><path class="cls-1" d="M83.84,82.92c.12.34.49.29.73.44s.19.09.16.22a10.09,10.09,0,0,1-3.53-.32v-.59A7,7,0,0,0,83.84,82.92Z"/><path class="cls-1" d="M58.35,64.74v.34c-.34.3-.88-.14-1.2.31-.44-.07-.77.31-1.23.25s-.77.26-1.17.36a13.16,13.16,0,0,1-1.42.25s0-.12-.08-.18.06-.2.18-.22a6.1,6.1,0,0,0,.81-.16,22,22,0,0,1,3.22-.7C57.78,64.94,58,64.63,58.35,64.74Z"/><path class="cls-1" d="M87.17,83.14l.2-.08c-.22-.31-.59,0-.82-.19,0-.16.07-.18.18-.18h.88A3.84,3.84,0,0,1,89.8,83l-.29.32H87.46C87.31,83.36,87.15,83.36,87.17,83.14Z"/><path class="cls-1" d="M39.51,75.82V75.5a22.87,22.87,0,0,1,2.92-1.38c.28-.16.57,0,.85-.07a5.43,5.43,0,0,1-2,1.07,10.7,10.7,0,0,0-1.37.64A1,1,0,0,1,39.51,75.82Z"/><path class="cls-1" d="M117.76,78.93a2.71,2.71,0,0,1,1.69.42,17.79,17.79,0,0,0,2.3,1v.38c-.23,0-.38-.12-.57-.21-1-.47-2.09-.9-3.14-1.33C117.91,79.1,117.74,79.14,117.76,78.93Z"/><path class="cls-1" d="M91.38,26.39v.67H89c0-.14-.08-.24,0-.27a1.23,1.23,0,0,1,.78-.4Z"/><path class="cls-1" d="M47.93,38.14c-.51-.14,0-.68-.33-.88-.33.2.18.73-.33.88-.12-1.19.4-2.32.27-3.51A8.37,8.37,0,0,1,47.93,38.14Z"/><path class="cls-1" d="M23.55,61.41c-.23.17-.07.6-.44.67,0-.73,0-1.47,0-2.2a2,2,0,0,1,.37-1.4,5.54,5.54,0,0,1,.08,1.5C23.57,60.46,23.55,60.94,23.55,61.41Z"/><path class="cls-1" d="M21.11,63h.67v.44H19c-.1-.17-.1-.27,0-.38s.4,0,.61-.06h1.55Z"/><path class="cls-1" d="M72.54,55.87c.36,0,.11.38.44.46V55c0-.15,0-.29.22-.28v.55a9.74,9.74,0,0,1,0,1.21,7.85,7.85,0,0,1-.28,1.11h-.37Z"/><path class="cls-1" d="M104,73.16h1l.39.42h.69a1.08,1.08,0,0,0,1,.5v.41c-.52.07-.82-.52-1.35-.44C105.26,73.61,104.47,73.72,104,73.16Z"/><path class="cls-1" d="M61.9,63.85v.35c-1,.25-1.95.51-2.94.75-.09,0-.19-.07-.16-.21a.17.17,0,0,1,.17-.22,2.9,2.9,0,0,0,.91-.19A13.51,13.51,0,0,1,61.9,63.85Z"/><path class="cls-1" d="M146.35,86.68c0-.1,0-.27,0-.31.47-.35.45-.91.67-1.37a6,6,0,0,0,.21-2.31c.06,0,.18,0,.18.08a6.75,6.75,0,0,1-.17,2.72A1.79,1.79,0,0,1,146.35,86.68Z"/><path class="cls-1" d="M91.16,67.84a3.22,3.22,0,0,1,1.88.49c.4.21.83.31,1.22.51v.33a2.13,2.13,0,0,1-1.06-.32,18.94,18.94,0,0,0-1.87-.78C91.22,68,91.13,68,91.16,67.84Z"/><path class="cls-1" d="M112.88,76.71c.7-.06,1.2.48,1.84.62.36.08.64.39,1,.29V78a1.23,1.23,0,0,1-.43,0c-.74-.31-1.48-.64-2.21-1A.34.34,0,0,1,112.88,76.71Z"/><path class="cls-1" d="M95.81,27.06v-.67c.7-.14,1.3.27,2,.26a.34.34,0,0,1-.06.41Z"/><path class="cls-1" d="M93.6,23.51c-.22,0-.22.13-.22.28v1.65c0,.15,0,.3-.23.29V22.62l.45-.69Z"/><path class="cls-1" d="M73.2,54.76c0-1,0-2.1,0-3.15,0-.16-.08-.39.22-.39a.19.19,0,0,1,.21.28,9.24,9.24,0,0,0-.22,2.87C73.41,54.53,73.51,54.76,73.2,54.76Z"/><path class="cls-1" d="M92.49,27.06l.66.66c-.29-.07-.44.13-.63.29s-.38.63-.8.6c-.27-.25,0-.38.09-.54C92.05,27.74,92.57,27.6,92.49,27.06Z"/><path class="cls-1" d="M94.26,69.17h1c.34.39,1,.3,1.22.89-.21,0-.43.08-.63-.08C95.38,69.6,94.73,69.57,94.26,69.17Z"/><path class="cls-1" d="M123.08,81.14h1c.24.21.41.5.81.46.2,0,.38.19.42.43A5.92,5.92,0,0,1,123.08,81.14Z"/><path class="cls-1" d="M125.3,82a1.52,1.52,0,0,1,1.25.29c.23.21.47.08.68.2s0,.26.06.4A4.19,4.19,0,0,1,125.3,82Z"/><path class="cls-1" d="M44.17,73.61a2.52,2.52,0,0,1,1.77-.89A2.62,2.62,0,0,1,44.17,73.61Z"/><path class="cls-1" d="M94.48,26.39l-.66-.66a.61.61,0,0,0,.57-.22c.18-.19.3-.51.66-.44.17.17.1.3,0,.46S94.39,25.93,94.48,26.39Z"/><path class="cls-1" d="M89.39,67a2.57,2.57,0,0,1,1.77.88A2.55,2.55,0,0,1,89.39,67Z"/><path class="cls-1" d="M36.19,70.5a2.67,2.67,0,0,1-2,.67A2.7,2.7,0,0,1,36.19,70.5Z"/><path class="cls-1" d="M93.15,25.73c-.06.37-.49.21-.66.44-.07-.43-.69-.51-.67-1,.19-.18.32-.11.48,0S92.7,25.82,93.15,25.73Z"/><path class="cls-1" d="M16,76.49a2.68,2.68,0,0,1-2,.66A3.46,3.46,0,0,1,16,76.49Z"/><path class="cls-2" d="M10.92,80.26v2.21c-.21,0-.23-.12-.22-.27a.84.84,0,0,0-.24-.78c.11-.29.31-.55.24-.89C10.67,80.39,10.71,80.24,10.92,80.26Z"/><path class="cls-1" d="M14,77.15v.36c-.47.08-.79.56-1.33.53A1.59,1.59,0,0,1,14,77.15Z"/><path class="cls-2" d="M7.81,118.38H10s0,.11,0,.11a4.39,4.39,0,0,1-2.22,0Z"/><path class="cls-2" d="M4.27,91.34V89.4c0-.15,0-.29.22-.28v1.94C4.49,91.22,4.47,91.36,4.27,91.34Z"/><path class="cls-1" d="M146.13,80.7h-.53c-.2-.2-.47-.36-.58-.67h.54C145.76,80.24,146,80.39,146.13,80.7Z"/><path class="cls-1" d="M122,80.7c.41,0,.93-.19,1.11.44A1.09,1.09,0,0,1,122,80.7Z"/><path class="cls-1" d="M145.47,87.35V87c.3-.09.51-.42.88-.35C146.16,87,146,87.38,145.47,87.35Z"/><path class="cls-1" d="M54.36,68.73c.13-.49.51-.46.89-.44v.44Z"/><path class="cls-1" d="M43.28,74.05v-.44h.89c0,.25-.29.26-.31.44Z"/><path class="cls-1" d="M53.48,69.17c.12-.49.5-.46.88-.44,0,.26-.28.26-.3.44Z"/><path class="cls-1" d="M96.48,70.06h.89v.44A1,1,0,0,1,96.48,70.06Z"/><path class="cls-1" d="M146.8,81.59h-.45v-.67A.56.56,0,0,1,146.8,81.59Z"/><path class="cls-2" d="M11.36,79.37a1,1,0,0,1-.44.89C10.9,79.88,10.87,79.49,11.36,79.37Z"/><path class="cls-1" d="M116,78h.66v.44A.54.54,0,0,1,116,78Z"/><path class="cls-2" d="M10.92,82.47c.19,0,.22.11.22.26v.63c-.19,0-.22-.11-.22-.26Z"/><path class="cls-1" d="M93.82,25.73c-.19,0-.22-.11-.22-.26v-.63c.19,0,.22.11.22.26Z"/><path class="cls-1" d="M20.45,63.41h.88A.54.54,0,0,1,20.45,63.41Z"/><circle class="cls-2" cx="12.25" cy="84.91" r="0.31"/><path class="cls-1" d="M147.24,82.25h-.44v-.44A.53.53,0,0,1,147.24,82.25Z"/><path class="cls-2" d="M11.14,83.58h.44V84A.53.53,0,0,1,11.14,83.58Z"/><path class="cls-1" d="M144.8,79.81h-.44v-.44A.53.53,0,0,1,144.8,79.81Z"/><path class="cls-1" d="M129.29,109.07c-.22-.08-.56.21-.67-.22C128.84,108.94,129.18,108.65,129.29,109.07Z"/><path class="cls-1" d="M116.87,78.48c.22.09.56-.2.67.22C117.32,78.62,117,78.91,116.87,78.48Z"/><path class="cls-1" d="M128.18,108.85c-.22-.08-.56.21-.67-.22C127.73,108.71,128.07,108.42,128.18,108.85Z"/><path class="cls-1" d="M34.19,71.17c-.1.43-.45.14-.66.22C33.63,71,34,71.25,34.19,71.17Z"/><path class="cls-1" d="M126,108.63c0,.33-.27.19-.44.22C125.54,108.52,125.79,108.66,126,108.63Z"/><path class="cls-1" d="M20,63h-.44c0-.21.13-.24.28-.22A.17.17,0,0,1,20,63Z"/><path class="cls-1" d="M22.16,62c-.2-.11-.19-.23-.09-.36C22.38,61.74,22.1,61.92,22.16,62Z"/><path class="cls-1" d="M131.28,115.94c0-.16-.11-.42.22-.44C131.47,115.67,131.61,115.93,131.28,115.94Z"/><path class="cls-1" d="M73.65,50.11c-.21,0-.24-.13-.22-.28a.17.17,0,0,1,.22-.16Z"/><path class="cls-1" d="M84.18,81.58q-.17-.1,0-.21Q84.33,81.47,84.18,81.58Z"/><path class="cls-2" d="M12.47,78.26c0,.15-.07.23-.22.22S12.31,78.26,12.47,78.26Z"/><path class="cls-2" d="M12,78.7c0,.16-.06.23-.22.23C11.8,78.77,11.87,78.7,12,78.7Z"/><path class="cls-1" d="M129.51,109.29c-.16,0-.23-.06-.22-.22A.19.19,0,0,1,129.51,109.29Z"/><path class="cls-1" d="M117.54,78.7c.15,0,.23.07.22.23C117.61,78.93,117.53,78.86,117.54,78.7Z"/><path class="cls-2" d="M11.58,79.15a.19.19,0,0,1-.22.22A.19.19,0,0,1,11.58,79.15Z"/><path class="cls-2" d="M11.8,84.25c.16,0,.23.06.22.22A.19.19,0,0,1,11.8,84.25Z"/><path class="cls-2" d="M11.58,84c.15,0,.23.07.22.23C11.65,84.25,11.58,84.18,11.58,84Z"/><path class="cls-1" d="M25.1,61.53c-.07.1-.14.1-.22,0C25,61.42,25,61.42,25.1,61.53Z"/><path class="cls-1" d="M121.31,50.55c0-.15.06-.22.22-.22C121.53,50.48,121.46,50.56,121.31,50.55Z"/><path class="cls-1" d="M46.16,40.58a.16.16,0,0,1-.13.2.12.12,0,0,1-.07-.07A.16.16,0,0,1,46.16,40.58Z"/><path class="cls-1" d="M46.05,37.69q-.15-.11,0-.21Q46.2,37.58,46.05,37.69Z"/><path class="cls-1" d="M146.35,80.92c-.15,0-.22-.07-.22-.22C146.29,80.69,146.36,80.77,146.35,80.92Z"/><path class="cls-2" d="M7.15,118.16c.15,0,.23.07.22.22A.19.19,0,0,1,7.15,118.16Z"/><path class="cls-2" d="M12.69,78a.19.19,0,0,1-.22.22A.19.19,0,0,1,12.69,78Z"/><path class="cls-1" d="M83.64,64.19c-.18.14-.3.15-.43,0C83.3,64,83.44,64,83.64,64.19Z"/></g></g></svg>